# xmcd
#
# Track frame offsets:
#	225
#	13105
#	23650
#	33580
#	45545
#	57682
#	68032
#	78367
#	89890
#	105137
#
# Disc length: 1641 seconds
#
# Revision: 1
# Processed by: cddbd v1.4PL0 Copyright (c) Steve Scherf et al.
# Submitted via: EasyCDDAExtractor 6.0.0.1
#
DISCID=7c06660a
DTITLE=Leroy Van Dyke
DYEAR=1900
DGENRE=
TTITLE0=The Auctioneer
TTITLE1=If A Woman Answers
TTITLE2=Be A Good Girl
TTITLE3=Big Man In A Big House
TTITLE4=Just A State Of Man
TTITLE5=Dim Dark Corner
TTITLE6=Walk On By
TTITLE7=Big Wide Wonderful World Of Country Music
TTITLE8=Anne Of A Thousand Days
TTITLE9=Black Cloud
EXTD=
EXTT0=
EXTT1=
EXTT2=
EXTT3=
EXTT4=
EXTT5=
EXTT6=
EXTT7=
EXTT8=
EXTT9=
PLAYORDER=
